<svg xmlns="http://www.w3.org/2000/svg" viewBox="0 0 24 24" fill="#21759B">
  <path d="M12 2C6.477 2 2 6.477 2 12s4.477 10 10 10 10-4.477 10-10S17.523 2 12 2zM3.5 12c0-1.232.262-2.403.728-3.463L7.69 19.35A8.507 8.507 0 0 1 3.5 12zm8.5 8.5c-.834 0-1.637-.12-2.396-.342l2.544-7.396 2.606 7.14A8.496 8.496 0 0 1 12 20.5zm1.17-11.367l2.167 6.308.598-1.997A6.93 6.93 0 0 0 16.5 12c0-.897-.163-1.756-.455-2.553l1.356-4.686A8.47 8.47 0 0 1 20.5 12a8.494 8.494 0 0 1-4.017 7.204l2.533-7.32c.473-1.183.63-2.13.63-2.97 0-.306-.02-.587-.057-.854l-6.419-1.927zm-1.17-.133c-.248-.013-.484-.02-.718-.02-1.057 0-1.97.192-2.71.523l.002-.007 1.73 5.024L13 9z"/>
</svg>
